<svg width="76" height="44" viewBox="0 0 76 44" fill="none" xmlns="http://www.w3.org/2000/svg">
<path d="M14 24.7422C14 24.9635 13.9089 25.1784 13.7266 25.3867C13.5573 25.5951 13.349 25.7969 13.1016 25.9922C12.8542 26.1875 12.6003 26.3698 12.3398 26.5391C12.0794 26.6953 11.8646 26.8255 11.6953 26.9297C11.2526 27.2161 10.8099 27.4831 10.3672 27.7305C9.9375 27.9779 9.48828 28.1927 9.01953 28.375C8.5638 28.5573 8.08854 28.7005 7.59375 28.8047C7.11198 28.9089 6.60417 28.9609 6.07031 28.9609L5.75781 29C5.32812 29 4.89844 28.9544 4.46875 28.8633C4.05208 28.7591 3.66146 28.6094 3.29688 28.4141C2.93229 28.2057 2.60677 27.9453 2.32031 27.6328C2.03385 27.3203 1.8125 26.9427 1.65625 26.5C1.53906 26.1484 1.44792 25.7318 1.38281 25.25C1.31771 24.7682 1.26562 24.2669 1.22656 23.7461C1.20052 23.2253 1.17448 22.7174 1.14844 22.2227C1.13542 21.7148 1.1224 21.2656 1.10938 20.875C0.914062 16.8906 0.757812 12.9062 0.640625 8.92188C0.614583 8.46615 0.595052 8.01042 0.582031 7.55469C0.56901 7.09896 0.5625 6.64323 0.5625 6.1875C0.5625 5.40625 0.608073 4.74219 0.699219 4.19531C0.790365 3.64844 0.972656 3.19922 1.24609 2.84766C1.51953 2.49609 1.91016 2.24219 2.41797 2.08594C2.9388 1.92969 3.6224 1.85156 4.46875 1.85156C5.3151 1.85156 6.16146 1.85807 7.00781 1.87109C7.86719 1.88411 8.72656 1.89062 9.58594 1.89062C9.84635 1.89062 10.1068 1.88411 10.3672 1.87109C10.6276 1.84505 10.888 1.86458 11.1484 1.92969C11.3047 1.95573 11.4414 2.0013 11.5586 2.06641C11.6758 2.11849 11.7344 2.24219 11.7344 2.4375C11.7344 2.90625 11.5781 3.25781 11.2656 3.49219C10.9531 3.71354 10.582 3.86328 10.1523 3.94141C9.72266 4.01953 9.27344 4.05859 8.80469 4.05859C8.34896 4.04557 7.97135 4.03906 7.67188 4.03906H5.13281C4.8724 4.03906 4.61198 4.03906 4.35156 4.03906C4.09115 4.03906 3.83073 4.05208 3.57031 4.07812C3.49219 4.27344 3.4401 4.47526 3.41406 4.68359C3.38802 4.89193 3.375 5.10677 3.375 5.32812C3.375 6.7474 3.40755 8.14714 3.47266 9.52734C3.55078 10.9076 3.6224 12.3073 3.6875 13.7266C4.49479 13.6615 5.29557 13.5833 6.08984 13.4922C6.88411 13.401 7.6849 13.2969 8.49219 13.1797C8.60938 13.1797 8.71354 13.1732 8.80469 13.1602C8.90885 13.1471 9.01302 13.1406 9.11719 13.1406C9.39062 13.1406 9.57943 13.2122 9.68359 13.3555C9.80078 13.4987 9.85938 13.7005 9.85938 13.9609C9.85938 14.1432 9.84635 14.3125 9.82031 14.4688C9.80729 14.625 9.76823 14.7812 9.70312 14.9375C9.61198 15.1979 9.46224 15.3867 9.25391 15.5039C9.04557 15.6211 8.8112 15.7057 8.55078 15.7578C8.29036 15.7969 8.01693 15.8164 7.73047 15.8164C7.45703 15.8164 7.21615 15.8229 7.00781 15.8359C6.46094 15.862 5.92057 15.8815 5.38672 15.8945C4.86589 15.9076 4.33854 15.9271 3.80469 15.9531C3.81771 16.2266 3.83724 16.6367 3.86328 17.1836C3.88932 17.7305 3.91536 18.349 3.94141 19.0391C3.98047 19.7161 4.01953 20.4193 4.05859 21.1484C4.11068 21.8776 4.16276 22.5677 4.21484 23.2188C4.26693 23.8568 4.32552 24.4167 4.39062 24.8984C4.45573 25.3802 4.52083 25.7057 4.58594 25.875C4.72917 26.1484 4.89193 26.3307 5.07422 26.4219C5.25651 26.5 5.4974 26.5391 5.79688 26.5391C6.27865 26.5391 6.78646 26.4479 7.32031 26.2656C7.85417 26.0703 8.375 25.8294 8.88281 25.543C9.39062 25.2435 9.8724 24.918 10.3281 24.5664C10.7969 24.2148 11.2005 23.8698 11.5391 23.5312C11.6823 23.4141 11.8255 23.2969 11.9688 23.1797C12.112 23.0495 12.2812 22.9844 12.4766 22.9844C12.6719 22.9844 12.8607 23.043 13.043 23.1602C13.2253 23.2773 13.388 23.4271 13.5312 23.6094C13.6745 23.7786 13.7852 23.9674 13.8633 24.1758C13.9544 24.3841 14 24.5729 14 24.7422ZM17.75 28.9023C17.75 29.2018 17.6589 29.3971 17.4766 29.4883C17.3073 29.5794 17.099 29.625 16.8516 29.625C16.6302 29.625 16.4089 29.6055 16.1875 29.5664C15.9792 29.5404 15.7773 29.4818 15.582 29.3906C15.3997 29.2995 15.237 29.1758 15.0938 29.0195C14.9635 28.8633 14.8724 28.6615 14.8203 28.4141C14.638 27.6328 14.5339 26.8711 14.5078 26.1289C14.4818 25.3737 14.4688 24.599 14.4688 23.8047V21.4023C14.4688 20.3086 14.5143 19.1758 14.6055 18.0039C14.6966 16.819 14.7943 15.6797 14.8984 14.5859C14.8984 14.5469 14.9049 14.5013 14.918 14.4492C14.931 14.3971 14.9375 14.3581 14.9375 14.332C14.9505 14.1888 14.9701 14.0326 14.9961 13.8633C15.0221 13.694 15.0612 13.5443 15.1133 13.4141C15.1784 13.2708 15.263 13.1536 15.3672 13.0625C15.4844 12.9714 15.6341 12.9258 15.8164 12.9258C16.0247 12.9258 16.2201 12.9714 16.4023 13.0625C16.5977 13.1406 16.7669 13.2513 16.9102 13.3945C17.0534 13.5247 17.1641 13.6875 17.2422 13.8828C17.3333 14.0781 17.3789 14.2799 17.3789 14.4883C17.3789 14.7096 17.3724 14.957 17.3594 15.2305C17.3464 15.4909 17.3268 15.7383 17.3008 15.9727C17.3008 16.0378 17.2943 16.1094 17.2812 16.1875C17.2812 16.2656 17.2747 16.3372 17.2617 16.4023C17.444 16.0378 17.6523 15.6602 17.8867 15.2695C18.1211 14.8659 18.388 14.5013 18.6875 14.1758C19 13.8372 19.3385 13.5638 19.7031 13.3555C20.0807 13.1471 20.4974 13.043 20.9531 13.043C21.3307 13.043 21.6432 13.1016 21.8906 13.2188C22.138 13.3359 22.3333 13.5052 22.4766 13.7266C22.6328 13.9349 22.737 14.1823 22.7891 14.4688C22.8542 14.7552 22.8867 15.0612 22.8867 15.3867C22.8867 15.8294 22.8737 16.2786 22.8477 16.7344C22.8216 17.1771 22.7956 17.6198 22.7695 18.0625C22.7305 18.5182 22.6979 18.9674 22.6719 19.4102C22.6458 19.8529 22.6328 20.3021 22.6328 20.7578C22.6328 21.3047 22.6458 21.8711 22.6719 22.457C22.6979 23.0299 22.737 23.5833 22.7891 24.1172C22.8411 24.638 22.8997 25.1133 22.9648 25.543C23.0299 25.9596 23.0951 26.2852 23.1602 26.5195C23.2122 26.7148 23.2643 26.9427 23.3164 27.2031C23.3815 27.4505 23.4401 27.7109 23.4922 27.9844C23.5573 28.2448 23.6094 28.4987 23.6484 28.7461C23.6875 28.9935 23.707 29.2148 23.707 29.4102C23.707 29.6966 23.5898 29.8789 23.3555 29.957C23.1341 30.0352 22.9128 30.0742 22.6914 30.0742C22.4701 30.0742 22.2161 30.0547 21.9297 30.0156C21.6562 29.9896 21.4089 29.918 21.1875 29.8008C20.9141 29.6055 20.7318 29.332 20.6406 28.9805C20.5625 28.6289 20.5104 28.2839 20.4844 27.9453L20.4258 27.418C20.3867 27.1055 20.3346 26.6953 20.2695 26.1875C20.2044 25.6797 20.1393 25.1198 20.0742 24.5078C20.0221 23.8958 19.9766 23.2643 19.9375 22.6133C19.8984 21.9492 19.8789 21.3047 19.8789 20.6797C19.8789 20.1198 19.8984 19.5794 19.9375 19.0586C19.9896 18.5378 20.0417 18.0104 20.0938 17.4766C20.1198 17.2031 20.1393 16.9818 20.1523 16.8125C20.1654 16.6432 20.1849 16.4219 20.2109 16.1484C19.9505 16.5651 19.6901 17.0534 19.4297 17.6133C19.1693 18.1732 18.9219 18.7591 18.6875 19.3711C18.4531 19.9701 18.2383 20.556 18.043 21.1289C17.8607 21.7018 17.7174 22.2031 17.6133 22.6328L17.4961 23.0625C17.431 23.2708 17.3724 23.4792 17.3203 23.6875C17.2812 23.8958 17.2617 24.0911 17.2617 24.2734C17.2617 24.5078 17.2747 24.7812 17.3008 25.0938C17.3268 25.3932 17.3594 25.6797 17.3984 25.9531C17.4375 26.2786 17.4831 26.6107 17.5352 26.9492C17.5352 26.9753 17.5482 27.0599 17.5742 27.2031C17.6003 27.3464 17.6263 27.5156 17.6523 27.7109C17.6784 27.9062 17.6979 28.1146 17.7109 28.3359C17.737 28.5443 17.75 28.7331 17.75 28.9023ZM35.1328 24.1562C35.1328 24.2865 35.0938 24.4427 35.0156 24.625C34.9505 24.7943 34.8594 24.9766 34.7422 25.1719C34.638 25.3542 34.5208 25.543 34.3906 25.7383C34.2604 25.9336 34.1367 26.1094 34.0195 26.2656L33.7266 26.6758L33.4336 27.1836L33.1797 27.6523C33.1927 27.9128 33.2122 28.1927 33.2383 28.4922C33.2643 28.7917 33.2904 29.0781 33.3164 29.3516C33.4596 30.6927 33.5833 32.0599 33.6875 33.4531C33.8047 34.8464 33.8633 36.2135 33.8633 37.5547C33.8633 38.2708 33.8047 38.9935 33.6875 39.7227C33.5703 40.4648 33.349 41.1289 33.0234 41.7148C32.7109 42.3138 32.2747 42.8021 31.7148 43.1797C31.1549 43.5573 30.4388 43.7461 29.5664 43.7461C28.9674 43.7461 28.4596 43.6354 28.043 43.4141C27.6263 43.1927 27.2878 42.8932 27.0273 42.5156C26.7799 42.151 26.5977 41.7214 26.4805 41.2266C26.3633 40.7318 26.3047 40.2174 26.3047 39.6836C26.3047 38.6289 26.4284 37.5612 26.6758 36.4805C26.9232 35.3997 27.2422 34.332 27.6328 33.2773C28.0365 32.2227 28.4922 31.1875 29 30.1719C29.5078 29.1693 30.0221 28.2057 30.543 27.2812C30.543 27.2552 30.543 27.2292 30.543 27.2031C30.543 27.1641 30.5365 27.1055 30.5234 27.0273C30.3542 27.3398 30.1589 27.6654 29.9375 28.0039C29.7292 28.3294 29.4883 28.6224 29.2148 28.8828C28.9544 29.1432 28.6615 29.3581 28.3359 29.5273C28.0234 29.6966 27.6719 29.7812 27.2812 29.7812C26.7344 29.7812 26.2786 29.651 25.9141 29.3906C25.5495 29.1302 25.2565 28.7982 25.0352 28.3945C24.8268 27.9909 24.6771 27.5482 24.5859 27.0664C24.4948 26.5846 24.4492 26.1289 24.4492 25.6992C24.4492 25.2044 24.4753 24.7161 24.5273 24.2344C24.5924 23.7526 24.6641 23.2839 24.7422 22.8281C24.8724 22.099 25.0352 21.3112 25.2305 20.4648C25.4388 19.6055 25.6927 18.7591 25.9922 17.9258C26.2917 17.0794 26.6367 16.2852 27.0273 15.543C27.431 14.8008 27.8997 14.1693 28.4336 13.6484L28.5898 13.5117C28.7591 13.3424 28.9544 13.1797 29.1758 13.0234C29.3971 12.8542 29.625 12.7695 29.8594 12.7695C30.0026 12.7695 30.1263 12.8086 30.2305 12.8867C30.3477 12.9648 30.4453 13.069 30.5234 13.1992C30.6016 13.3164 30.6602 13.4466 30.6992 13.5898C30.7513 13.7331 30.7773 13.8698 30.7773 14C30.7773 14.1562 30.7188 14.3255 30.6016 14.5078H30.6406C31.4349 14.5078 31.9688 14.8724 32.2422 15.6016C32.3854 15.7318 32.4896 15.888 32.5547 16.0703C32.6328 16.2526 32.6719 16.4479 32.6719 16.6562C32.6719 16.7604 32.6654 16.8776 32.6523 17.0078C32.6393 17.125 32.6198 17.2357 32.5938 17.3398C32.5677 17.457 32.5482 17.5677 32.5352 17.6719C32.5221 17.776 32.5156 17.8737 32.5156 17.9648C32.5156 18.2643 32.5221 18.6354 32.5352 19.0781C32.5482 19.5208 32.5677 19.9831 32.5938 20.4648C32.6198 20.9466 32.6458 21.4219 32.6719 21.8906C32.7109 22.3464 32.7435 22.7435 32.7695 23.082C32.8607 22.9648 32.9648 22.8607 33.082 22.7695C33.2122 22.6784 33.362 22.6328 33.5312 22.6328C33.6745 22.6328 33.8372 22.6849 34.0195 22.7891C34.2148 22.8932 34.3906 23.0234 34.5469 23.1797C34.7161 23.3359 34.8529 23.5052 34.957 23.6875C35.0742 23.8568 35.1328 24.013 35.1328 24.1562ZM29.7617 16.1094C29.7617 16.0312 29.7617 15.9466 29.7617 15.8555C29.7747 15.7643 29.7943 15.6667 29.8203 15.5625L29.6836 15.7383C29.5794 15.8555 29.4818 15.9661 29.3906 16.0703C29.2995 16.1745 29.2148 16.2852 29.1367 16.4023C28.7982 16.8971 28.4987 17.5417 28.2383 18.3359C27.9909 19.1172 27.7826 19.944 27.6133 20.8164C27.444 21.6758 27.3138 22.5221 27.2227 23.3555C27.1445 24.1888 27.1055 24.9049 27.1055 25.5039C27.1055 25.8034 27.112 26.1029 27.125 26.4023C27.138 26.7018 27.2031 26.9948 27.3203 27.2812C27.5026 27.0859 27.6523 26.8776 27.7695 26.6562C27.8867 26.4219 27.9974 26.181 28.1016 25.9336C28.388 25.2956 28.6354 24.5534 28.8438 23.707C29.0521 22.8607 29.2214 21.9883 29.3516 21.0898C29.4818 20.1914 29.5794 19.3125 29.6445 18.4531C29.7096 17.5807 29.7487 16.7995 29.7617 16.1094ZM31.2461 36.9688C31.2461 36.0833 31.2266 35.25 31.1875 34.4688C31.1484 33.7005 31.0898 32.8737 31.0117 31.9883C30.7773 32.5482 30.5365 33.1471 30.2891 33.7852C30.0547 34.4362 29.8464 35.0872 29.6641 35.7383C29.4818 36.4023 29.332 37.0599 29.2148 37.7109C29.0977 38.362 29.0391 38.9805 29.0391 39.5664V39.7031C29.0391 40.0026 29.0586 40.3216 29.0977 40.6602C29.1367 41.0117 29.2604 41.2982 29.4688 41.5195H29.6836C29.944 41.5195 30.1589 41.4284 30.3281 41.2461C30.5104 41.0768 30.6602 40.8555 30.7773 40.582C30.8945 40.3086 30.9857 40.0026 31.0508 39.6641C31.1159 39.3255 31.1615 38.987 31.1875 38.6484C31.2135 38.3099 31.2266 37.9909 31.2266 37.6914C31.2396 37.3919 31.2461 37.151 31.2461 36.9688ZM43.9609 28.7461C43.9609 29.0065 43.8958 29.1823 43.7656 29.2734C43.6354 29.3776 43.4531 29.4297 43.2188 29.4297C42.6068 29.4297 42.1641 29.2669 41.8906 28.9414C41.6302 28.6159 41.4349 28.1862 41.3047 27.6523C41.2656 27.4701 41.2266 27.2878 41.1875 27.1055C41.1484 26.9102 41.1159 26.7214 41.0898 26.5391C41.0638 26.3698 41.0378 26.2526 41.0117 26.1875C40.9857 26.1224 40.9596 25.9987 40.9336 25.8164C40.7773 26.194 40.582 26.5911 40.3477 27.0078C40.1263 27.4115 39.8659 27.7891 39.5664 28.1406C39.2669 28.4792 38.9284 28.7591 38.5508 28.9805C38.1862 29.2018 37.7826 29.3125 37.3398 29.3125C36.8711 29.3125 36.4805 29.2018 36.168 28.9805C35.8555 28.7461 35.6081 28.4596 35.4258 28.1211C35.2565 27.7695 35.1328 27.3854 35.0547 26.9688C34.9896 26.5521 34.957 26.1549 34.957 25.7773C34.957 24.8919 35.0417 23.9349 35.2109 22.9062C35.3932 21.8646 35.6406 20.8294 35.9531 19.8008C36.2656 18.7591 36.6302 17.763 37.0469 16.8125C37.4635 15.849 37.9193 15.0091 38.4141 14.293V14.3125L38.5312 14.1367C38.6745 13.9414 38.8372 13.7331 39.0195 13.5117C39.2148 13.2773 39.4427 13.1602 39.7031 13.1602C39.9505 13.1602 40.1654 13.2708 40.3477 13.4922C40.5299 13.7005 40.6602 13.9219 40.7383 14.1562C41.0768 14.2214 41.3503 14.306 41.5586 14.4102C41.7669 14.5013 41.9297 14.6185 42.0469 14.7617C42.1641 14.9049 42.2422 15.0742 42.2812 15.2695C42.3203 15.4518 42.3398 15.6536 42.3398 15.875C42.3398 15.9661 42.3398 16.0638 42.3398 16.168C42.3398 16.2721 42.3333 16.3763 42.3203 16.4805C42.3073 16.5846 42.3008 16.7083 42.3008 16.8516C42.3008 16.9948 42.3008 17.125 42.3008 17.2422C42.3008 17.3724 42.3203 17.5417 42.3594 17.75C42.4115 17.9583 42.4635 18.1732 42.5156 18.3945L42.6523 19.1172C42.7174 19.4948 42.7695 19.9245 42.8086 20.4062C42.8607 20.888 42.9193 21.3698 42.9844 21.8516C43.0365 22.3464 43.0885 22.8281 43.1406 23.2969C43.1927 23.7526 43.2448 24.1758 43.2969 24.5664L43.7656 27.457L43.8242 27.7891C43.8503 27.9583 43.8763 28.1146 43.9023 28.2578C43.9414 28.401 43.9609 28.5638 43.9609 28.7461ZM39.4883 17.5156C39.4883 17.4896 39.4818 17.4505 39.4688 17.3984C39.4557 17.3333 39.4427 17.2682 39.4297 17.2031C39.1302 17.8411 38.8633 18.5378 38.6289 19.293C38.4076 20.0352 38.2188 20.7969 38.0625 21.5781C37.9193 22.3464 37.8086 23.1211 37.7305 23.9023C37.6654 24.6706 37.6328 25.3997 37.6328 26.0898C37.6328 26.1549 37.6328 26.2135 37.6328 26.2656C37.6328 26.3177 37.6393 26.3698 37.6523 26.4219V26.4414C37.9648 25.9596 38.2318 25.3281 38.4531 24.5469C38.6875 23.7526 38.8828 22.9258 39.0391 22.0664C39.1953 21.194 39.306 20.3542 39.3711 19.5469C39.4492 18.7266 39.4883 18.0495 39.4883 17.5156ZM55.1719 24.1562C55.1719 24.2865 55.1328 24.4427 55.0547 24.625C54.9896 24.7943 54.8984 24.9766 54.7812 25.1719C54.6771 25.3542 54.5599 25.543 54.4297 25.7383C54.2995 25.9336 54.1758 26.1094 54.0586 26.2656L53.7656 26.6758L53.4727 27.1836L53.2188 27.6523C53.2318 27.9128 53.2513 28.1927 53.2773 28.4922C53.3034 28.7917 53.3294 29.0781 53.3555 29.3516C53.4987 30.6927 53.6224 32.0599 53.7266 33.4531C53.8438 34.8464 53.9023 36.2135 53.9023 37.5547C53.9023 38.2708 53.8438 38.9935 53.7266 39.7227C53.6094 40.4648 53.388 41.1289 53.0625 41.7148C52.75 42.3138 52.3138 42.8021 51.7539 43.1797C51.194 43.5573 50.4779 43.7461 49.6055 43.7461C49.0065 43.7461 48.4987 43.6354 48.082 43.4141C47.6654 43.1927 47.3268 42.8932 47.0664 42.5156C46.819 42.151 46.6367 41.7214 46.5195 41.2266C46.4023 40.7318 46.3438 40.2174 46.3438 39.6836C46.3438 38.6289 46.4674 37.5612 46.7148 36.4805C46.9622 35.3997 47.2812 34.332 47.6719 33.2773C48.0755 32.2227 48.5312 31.1875 49.0391 30.1719C49.5469 29.1693 50.0612 28.2057 50.582 27.2812C50.582 27.2552 50.582 27.2292 50.582 27.2031C50.582 27.1641 50.5755 27.1055 50.5625 27.0273C50.3932 27.3398 50.1979 27.6654 49.9766 28.0039C49.7682 28.3294 49.5273 28.6224 49.2539 28.8828C48.9935 29.1432 48.7005 29.3581 48.375 29.5273C48.0625 29.6966 47.7109 29.7812 47.3203 29.7812C46.7734 29.7812 46.3177 29.651 45.9531 29.3906C45.5885 29.1302 45.2956 28.7982 45.0742 28.3945C44.8659 27.9909 44.7161 27.5482 44.625 27.0664C44.5339 26.5846 44.4883 26.1289 44.4883 25.6992C44.4883 25.2044 44.5143 24.7161 44.5664 24.2344C44.6315 23.7526 44.7031 23.2839 44.7812 22.8281C44.9115 22.099 45.0742 21.3112 45.2695 20.4648C45.4779 19.6055 45.7318 18.7591 46.0312 17.9258C46.3307 17.0794 46.6758 16.2852 47.0664 15.543C47.4701 14.8008 47.9388 14.1693 48.4727 13.6484L48.6289 13.5117C48.7982 13.3424 48.9935 13.1797 49.2148 13.0234C49.4362 12.8542 49.6641 12.7695 49.8984 12.7695C50.0417 12.7695 50.1654 12.8086 50.2695 12.8867C50.3867 12.9648 50.4844 13.069 50.5625 13.1992C50.6406 13.3164 50.6992 13.4466 50.7383 13.5898C50.7904 13.7331 50.8164 13.8698 50.8164 14C50.8164 14.1562 50.7578 14.3255 50.6406 14.5078H50.6797C51.474 14.5078 52.0078 14.8724 52.2812 15.6016C52.4245 15.7318 52.5286 15.888 52.5938 16.0703C52.6719 16.2526 52.7109 16.4479 52.7109 16.6562C52.7109 16.7604 52.7044 16.8776 52.6914 17.0078C52.6784 17.125 52.6589 17.2357 52.6328 17.3398C52.6068 17.457 52.5872 17.5677 52.5742 17.6719C52.5612 17.776 52.5547 17.8737 52.5547 17.9648C52.5547 18.2643 52.5612 18.6354 52.5742 19.0781C52.5872 19.5208 52.6068 19.9831 52.6328 20.4648C52.6589 20.9466 52.6849 21.4219 52.7109 21.8906C52.75 22.3464 52.7826 22.7435 52.8086 23.082C52.8997 22.9648 53.0039 22.8607 53.1211 22.7695C53.2513 22.6784 53.401 22.6328 53.5703 22.6328C53.7135 22.6328 53.8763 22.6849 54.0586 22.7891C54.2539 22.8932 54.4297 23.0234 54.5859 23.1797C54.7552 23.3359 54.8919 23.5052 54.9961 23.6875C55.1133 23.8568 55.1719 24.013 55.1719 24.1562ZM49.8008 16.1094C49.8008 16.0312 49.8008 15.9466 49.8008 15.8555C49.8138 15.7643 49.8333 15.6667 49.8594 15.5625L49.7227 15.7383C49.6185 15.8555 49.5208 15.9661 49.4297 16.0703C49.3385 16.1745 49.2539 16.2852 49.1758 16.4023C48.8372 16.8971 48.5378 17.5417 48.2773 18.3359C48.0299 19.1172 47.8216 19.944 47.6523 20.8164C47.4831 21.6758 47.3529 22.5221 47.2617 23.3555C47.1836 24.1888 47.1445 24.9049 47.1445 25.5039C47.1445 25.8034 47.151 26.1029 47.1641 26.4023C47.1771 26.7018 47.2422 26.9948 47.3594 27.2812C47.5417 27.0859 47.6914 26.8776 47.8086 26.6562C47.9258 26.4219 48.0365 26.181 48.1406 25.9336C48.4271 25.2956 48.6745 24.5534 48.8828 23.707C49.0911 22.8607 49.2604 21.9883 49.3906 21.0898C49.5208 20.1914 49.6185 19.3125 49.6836 18.4531C49.7487 17.5807 49.7878 16.7995 49.8008 16.1094ZM51.2852 36.9688C51.2852 36.0833 51.2656 35.25 51.2266 34.4688C51.1875 33.7005 51.1289 32.8737 51.0508 31.9883C50.8164 32.5482 50.5755 33.1471 50.3281 33.7852C50.0938 34.4362 49.8854 35.0872 49.7031 35.7383C49.5208 36.4023 49.3711 37.0599 49.2539 37.7109C49.1367 38.362 49.0781 38.9805 49.0781 39.5664V39.7031C49.0781 40.0026 49.0977 40.3216 49.1367 40.6602C49.1758 41.0117 49.2995 41.2982 49.5078 41.5195H49.7227C49.9831 41.5195 50.1979 41.4284 50.3672 41.2461C50.5495 41.0768 50.6992 40.8555 50.8164 40.582C50.9336 40.3086 51.0247 40.0026 51.0898 39.6641C51.1549 39.3255 51.2005 38.987 51.2266 38.6484C51.2526 38.3099 51.2656 37.9909 51.2656 37.6914C51.2786 37.3919 51.2852 37.151 51.2852 36.9688ZM63.2578 25.4258C63.2578 25.8164 63.1471 26.2201 62.9258 26.6367C62.7174 27.0534 62.444 27.4375 62.1055 27.7891C61.7669 28.1276 61.3763 28.4076 60.9336 28.6289C60.5039 28.8503 60.0742 28.9609 59.6445 28.9609C59.0326 28.9609 58.5052 28.8438 58.0625 28.6094C57.6198 28.362 57.2357 28.0365 56.9102 27.6328C56.5846 27.2161 56.3177 26.7474 56.1094 26.2266C55.9141 25.7057 55.7578 25.1719 55.6406 24.625C55.5234 24.0651 55.4388 23.5117 55.3867 22.9648C55.3477 22.4049 55.3281 21.8971 55.3281 21.4414C55.3281 21.0508 55.3477 20.5885 55.3867 20.0547C55.4388 19.5208 55.5169 18.9674 55.6211 18.3945C55.7383 17.8216 55.8945 17.2552 56.0898 16.6953C56.2852 16.1354 56.526 15.6341 56.8125 15.1914C57.112 14.7487 57.4635 14.3906 57.8672 14.1172C58.2839 13.8438 58.7591 13.707 59.293 13.707C59.7096 13.707 60.0807 13.7917 60.4062 13.9609C60.7448 14.1302 61.0247 14.3581 61.2461 14.6445C61.4805 14.918 61.6562 15.237 61.7734 15.6016C61.9036 15.9661 61.9688 16.3438 61.9688 16.7344C61.9688 17.2422 61.8516 17.7956 61.6172 18.3945C61.3828 18.9935 61.0768 19.5729 60.6992 20.1328C60.3346 20.6927 59.918 21.2005 59.4492 21.6562C58.9935 22.099 58.5378 22.4375 58.082 22.6719C58.1081 22.9062 58.1602 23.2513 58.2383 23.707C58.3164 24.1497 58.4206 24.5924 58.5508 25.0352C58.694 25.4779 58.8568 25.862 59.0391 26.1875C59.2344 26.513 59.4622 26.6758 59.7227 26.6758C59.8529 26.6758 59.9635 26.6367 60.0547 26.5586C60.1589 26.4805 60.25 26.3763 60.3281 26.2461C60.4062 26.1159 60.4714 25.9727 60.5234 25.8164C60.5885 25.6602 60.6471 25.5104 60.6992 25.3672L60.8164 25.0938C60.8424 25.0547 60.8555 25.0286 60.8555 25.0156C60.8685 25.0026 60.8815 24.9831 60.8945 24.957C60.9857 24.7878 61.0703 24.6315 61.1484 24.4883C61.2396 24.3451 61.3633 24.2214 61.5195 24.1172H61.5C61.5521 24.0651 61.6042 24.0391 61.6562 24.0391C61.7214 24.026 61.7799 24.0195 61.832 24.0195C61.9753 24.0195 62.1315 24.0651 62.3008 24.1562C62.4701 24.2474 62.6263 24.3646 62.7695 24.5078C62.9128 24.638 63.0299 24.7878 63.1211 24.957C63.2122 25.1133 63.2578 25.2695 63.2578 25.4258ZM59.3906 16.8125C59.3906 16.6823 59.3841 16.5456 59.3711 16.4023C59.3581 16.2591 59.3255 16.1354 59.2734 16.0312C59.0911 16.2526 58.9284 16.5195 58.7852 16.832C58.6549 17.1315 58.5443 17.4505 58.4531 17.7891C58.362 18.1146 58.2839 18.4466 58.2188 18.7852C58.1667 19.1237 58.1276 19.4362 58.1016 19.7227C58.4401 19.319 58.7396 18.8633 59 18.3555C59.2604 17.8346 59.3906 17.3203 59.3906 16.8125ZM75.4844 29.5859C75.4844 29.7422 75.4388 29.8659 75.3477 29.957C75.2695 30.0482 75.1719 30.1133 75.0547 30.1523C74.9375 30.1914 74.8073 30.2174 74.6641 30.2305C74.5208 30.2435 74.3906 30.25 74.2734 30.25C73.9609 30.25 73.694 30.2435 73.4727 30.2305C73.2513 30.2305 73.056 30.1914 72.8867 30.1133C72.7174 30.0352 72.5677 29.9115 72.4375 29.7422C72.3073 29.5859 72.1771 29.3516 72.0469 29.0391C71.513 27.8802 71.0443 26.6953 70.6406 25.4844C70.25 24.2604 69.8464 23.0365 69.4297 21.8125C69.0911 22.6979 68.7331 23.5703 68.3555 24.4297C67.9779 25.2891 67.5938 26.1484 67.2031 27.0078C67.0208 27.3984 66.8516 27.7956 66.6953 28.1992C66.5391 28.5898 66.3438 28.974 66.1094 29.3516C65.9922 29.5339 65.875 29.6771 65.7578 29.7812C65.6536 29.8854 65.4844 29.9375 65.25 29.9375C65.0807 29.9375 64.8854 29.8919 64.6641 29.8008C64.4427 29.7096 64.2279 29.5859 64.0195 29.4297C63.8242 29.2865 63.6549 29.1237 63.5117 28.9414C63.3685 28.7461 63.2969 28.5573 63.2969 28.375C63.2969 28.2969 63.362 28.0951 63.4922 27.7695C63.6224 27.444 63.7917 27.0599 64 26.6172C64.2083 26.1615 64.4297 25.6732 64.6641 25.1523C64.9115 24.6185 65.1458 24.1107 65.3672 23.6289C65.6016 23.1471 65.8034 22.7174 65.9727 22.3398C66.1549 21.9492 66.2786 21.6693 66.3438 21.5C66.6562 20.7708 66.9297 20.0417 67.1641 19.3125C67.4115 18.5703 67.6458 17.8281 67.8672 17.0859C67.7891 16.8516 67.6654 16.474 67.4961 15.9531C67.3268 15.4323 67.125 14.8333 66.8906 14.1562C66.6562 13.4661 66.4023 12.724 66.1289 11.9297C65.8555 11.1354 65.582 10.3346 65.3086 9.52734C65.0352 8.70703 64.7682 7.91927 64.5078 7.16406C64.2474 6.39583 64.0195 5.70573 63.8242 5.09375C63.6289 4.48177 63.4727 3.97396 63.3555 3.57031C63.2383 3.16667 63.1797 2.91927 63.1797 2.82812C63.1797 2.71094 63.2122 2.61979 63.2773 2.55469C63.3555 2.48958 63.4466 2.4375 63.5508 2.39844C63.6549 2.35938 63.7591 2.33984 63.8633 2.33984C63.9805 2.32682 64.0781 2.32031 64.1562 2.32031C64.7031 2.32031 65.1263 2.4375 65.4258 2.67188C65.7383 2.90625 66.0052 3.25781 66.2266 3.72656C66.8125 5.02865 67.3333 6.35677 67.7891 7.71094C68.2448 9.0651 68.7005 10.4193 69.1562 11.7734C69.3906 10.6146 69.6185 9.46224 69.8398 8.31641C70.0742 7.17057 70.2891 6.01823 70.4844 4.85938C70.5365 4.61198 70.5885 4.29948 70.6406 3.92188C70.6927 3.54427 70.7448 3.15365 70.7969 2.75C70.862 2.34635 70.9271 1.96875 70.9922 1.61719C71.0703 1.2526 71.1615 0.966146 71.2656 0.757812C71.3307 0.614583 71.3958 0.516927 71.4609 0.464844C71.5391 0.39974 71.6693 0.367188 71.8516 0.367188C72.0599 0.367188 72.2747 0.40625 72.4961 0.484375C72.7174 0.5625 72.9128 0.673177 73.082 0.816406C73.2643 0.959635 73.4076 1.12891 73.5117 1.32422C73.6289 1.51953 73.6875 1.73438 73.6875 1.96875C73.6875 2.89323 73.5898 3.80469 73.3945 4.70312C73.1992 5.60156 73.0234 6.51302 72.8672 7.4375C72.5677 9.0651 72.2812 10.6927 72.0078 12.3203C71.7344 13.9349 71.3828 15.5365 70.9531 17.125C71.5781 19.013 72.2161 20.8815 72.8672 22.7305C73.5182 24.5794 74.2344 26.4089 75.0156 28.2188C75.1198 28.4401 75.224 28.6615 75.3281 28.8828C75.4323 29.0911 75.4844 29.3255 75.4844 29.5859Z" fill="white"/>
</svg>
